# Blender v2.78 (sub 0) OBJ File: 'yellow_ball.blend'
# www.blender.org
mtllib yellow_ball.mtl
o ball_Sphere.007
v 0.000000 0.012717 0.055717
v 0.000000 0.035632 0.044682
v 0.000000 0.044682 0.035632
v 0.000000 0.051490 0.024796
v 0.000000 0.055717 0.012717
v 0.000000 0.057150 0.000000
v 0.000000 0.055717 -0.012717
v 0.000000 0.051490 -0.024796
v 0.000000 0.044682 -0.035632
v 0.000000 0.035632 -0.044682
v 0.000000 0.024796 -0.051490
v 0.000000 0.012717 -0.055717
v 0.005518 0.011458 0.055717
v 0.010759 0.022341 0.051490
v 0.015460 0.032104 0.044682
v 0.019387 0.040257 0.035632
v 0.022341 0.046391 0.024796
v 0.024175 0.050199 0.012717
v 0.024796 0.051490 0.000000
v 0.024175 0.050199 -0.012717
v 0.022341 0.046391 -0.024796
v 0.019387 0.040257 -0.035632
v 0.015460 0.032104 -0.044682
v 0.010759 0.022341 -0.051490
v 0.005518 0.011458 -0.055717
v 0.009943 0.007929 0.055717
v 0.019387 0.015460 0.051490
v 0.027859 0.022216 0.044682
v 0.034934 0.027859 0.035632
v 0.040257 0.032104 0.024796
v 0.043561 0.034739 0.012717
v 0.044682 0.035632 0.000000
v 0.043561 0.034739 -0.012717
v 0.040257 0.032104 -0.024796
v 0.034934 0.027859 -0.035632
v 0.027859 0.022216 -0.044682
v 0.019387 0.015460 -0.051490
v 0.009943 0.007929 -0.055717
v 0.012398 0.002830 0.055717
v 0.024175 0.005518 0.051490
v 0.034739 0.007929 0.044682
v 0.043561 0.009943 0.035632
v 0.050199 0.011458 0.024796
v 0.054320 0.012398 0.012717
v 0.055717 0.012717 0.000000
v 0.054320 0.012398 -0.012717
v 0.050199 0.011458 -0.024796
v 0.043561 0.009943 -0.035632
v 0.034739 0.007929 -0.044682
v 0.024175 0.005518 -0.051490
v 0.012398 0.002830 -0.055717
v 0.012398 -0.002830 0.055717
v 0.024175 -0.005518 0.051490
v 0.034739 -0.007929 0.044682
v 0.043561 -0.009943 0.035632
v 0.050199 -0.011458 0.024796
v 0.054320 -0.012398 0.012717
v 0.055717 -0.012717 0.000000
v 0.054320 -0.012398 -0.012717
v 0.050199 -0.011458 -0.024796
v 0.043561 -0.009943 -0.035632
v 0.034739 -0.007929 -0.044682
v 0.024175 -0.005518 -0.051490
v 0.012398 -0.002830 -0.055717
v 0.009943 -0.007929 0.055717
v 0.019387 -0.015460 0.051490
v 0.027859 -0.022217 0.044682
v 0.034934 -0.027859 0.035632
v 0.040257 -0.032104 0.024796
v 0.043561 -0.034739 0.012717
v 0.044682 -0.035632 0.000000
v 0.043561 -0.034739 -0.012717
v 0.040257 -0.032104 -0.024796
v 0.034934 -0.027859 -0.035632
v 0.027859 -0.022216 -0.044682
v 0.019387 -0.015460 -0.051490
v 0.009943 -0.007929 -0.055717
v 0.005518 -0.011458 0.055717
v 0.010759 -0.022341 0.051490
v 0.015460 -0.032104 0.044682
v 0.019387 -0.040257 0.035632
v 0.022341 -0.046391 0.024796
v 0.024175 -0.050199 0.012717
v 0.024796 -0.051490 0.000000
v 0.024175 -0.050199 -0.012717
v 0.022341 -0.046391 -0.024796
v 0.019387 -0.040257 -0.035632
v 0.015460 -0.032104 -0.044682
v 0.010759 -0.022341 -0.051490
v 0.005518 -0.011458 -0.055717
v -0.000000 -0.012717 0.055717
v -0.000000 -0.024796 0.051490
v -0.000000 -0.035632 0.044682
v -0.000000 -0.044682 0.035632
v -0.000000 -0.051490 0.024796
v -0.000000 -0.055717 0.012717
v 0.000000 -0.057150 0.000000
v -0.000000 -0.055717 -0.012717
v -0.000000 -0.051490 -0.024796
v -0.000000 -0.044682 -0.035632
v -0.000000 -0.035632 -0.044682
v -0.000000 -0.024796 -0.051490
v -0.000000 -0.012717 -0.055717
v -0.000000 -0.000000 0.057150
v -0.005518 -0.011458 0.055717
v -0.010759 -0.022341 0.051490
v -0.015460 -0.032104 0.044682
v -0.019387 -0.040257 0.035632
v -0.022341 -0.046391 0.024796
v -0.024175 -0.050199 0.012717
v -0.024796 -0.051490 0.000000
v -0.024175 -0.050199 -0.012717
v -0.022341 -0.046391 -0.024796
v -0.019387 -0.040257 -0.035632
v -0.015460 -0.032104 -0.044682
v -0.010759 -0.022341 -0.051490
v -0.005518 -0.011458 -0.055717
v -0.009943 -0.007929 0.055717
v -0.019387 -0.015460 0.051490
v -0.027859 -0.022216 0.044682
v -0.034934 -0.027859 0.035632
v -0.040257 -0.032104 0.024796
v -0.043561 -0.034739 0.012717
v -0.044682 -0.035632 0.000000
v -0.043561 -0.034739 -0.012717
v -0.040257 -0.032104 -0.024796
v -0.034934 -0.027859 -0.035632
v -0.027859 -0.022216 -0.044682
v -0.019387 -0.015460 -0.051490
v -0.009943 -0.007929 -0.055717
v 0.000000 -0.000000 -0.057150
v -0.012398 -0.002830 0.055717
v -0.024175 -0.005518 0.051490
v -0.034739 -0.007929 0.044682
v -0.043561 -0.009943 0.035632
v -0.050199 -0.011458 0.024796
v -0.054320 -0.012398 0.012717
v -0.055717 -0.012717 0.000000
v -0.054320 -0.012398 -0.012717
v -0.050199 -0.011458 -0.024796
v -0.043561 -0.009943 -0.035632
v -0.034739 -0.007929 -0.044682
v -0.024175 -0.005518 -0.051490
v -0.012398 -0.002830 -0.055717
v -0.012398 0.002830 0.055717
v -0.024175 0.005518 0.051490
v -0.034739 0.007929 0.044682
v -0.043561 0.009943 0.035632
v -0.050199 0.011458 0.024796
v -0.054320 0.012398 0.012717
v -0.055717 0.012717 0.000000
v -0.054320 0.012398 -0.012717
v -0.050199 0.011458 -0.024796
v -0.043561 0.009943 -0.035632
v -0.034739 0.007929 -0.044682
v -0.024175 0.005518 -0.051490
v -0.012398 0.002830 -0.055717
v -0.009943 0.007929 0.055717
v -0.019387 0.015460 0.051490
v -0.027859 0.022216 0.044682
v -0.034934 0.027859 0.035632
v -0.040257 0.032104 0.024796
v -0.043561 0.034739 0.012717
v -0.044682 0.035632 0.000000
v -0.043561 0.034739 -0.012717
v -0.040257 0.032104 -0.024796
v -0.034934 0.027859 -0.035632
v -0.027859 0.022216 -0.044682
v -0.019387 0.015460 -0.051490
v -0.009943 0.007929 -0.055717
v -0.005518 0.011458 0.055717
v -0.010759 0.022341 0.051490
v -0.015460 0.032104 0.044682
v -0.019387 0.040257 0.035632
v -0.022341 0.046391 0.024796
v -0.024175 0.050199 0.012717
v -0.024796 0.051490 0.000000
v -0.024175 0.050199 -0.012717
v -0.022341 0.046391 -0.024796
v -0.019387 0.040257 -0.035632
v -0.015460 0.032104 -0.044682
v -0.010759 0.022341 -0.051490
v -0.005518 0.011458 -0.055717
v 0.000000 0.024796 0.051490
vn 0.0255 0.1119 -0.9934
vn 0.2212 0.9691 0.1092
vn 0.2212 0.9691 -0.1092
vn 0.0255 0.1119 0.9934
vn 0.2106 0.9227 -0.3229
vn 0.0752 0.3293 0.9412
vn 0.1897 0.8313 -0.5224
vn 0.1205 0.5282 0.8405
vn 0.1593 0.6981 -0.6981
vn 0.1593 0.6981 0.6981
vn 0.1205 0.5282 -0.8405
vn 0.1897 0.8313 0.5224
vn 0.0752 0.3293 -0.9412
vn 0.2106 0.9227 0.3229
vn 0.6198 0.7772 -0.1092
vn 0.0716 0.0898 0.9934
vn 0.5901 0.7400 -0.3229
vn 0.2106 0.2641 0.9412
vn 0.5317 0.6667 -0.5224
vn 0.3378 0.4235 0.8405
vn 0.4464 0.5598 -0.6981
vn 0.4464 0.5598 0.6981
vn 0.3378 0.4235 -0.8405
vn 0.5317 0.6667 0.5224
vn 0.2106 0.2641 -0.9412
vn 0.5901 0.7400 0.3229
vn 0.0716 0.0898 -0.9934
vn 0.6198 0.7772 0.1092
vn 0.8956 0.4313 -0.1092
vn 0.1034 0.0498 0.9934
vn 0.8527 0.4106 -0.3229
vn 0.3044 0.1466 0.9412
vn 0.7683 0.3700 -0.5224
vn 0.4881 0.2350 0.8405
vn 0.6451 0.3107 -0.6981
vn 0.6451 0.3107 0.6981
vn 0.4881 0.2350 -0.8405
vn 0.7683 0.3700 0.5224
vn 0.3044 0.1466 -0.9412
vn 0.8527 0.4106 0.3229
vn 0.1034 0.0498 -0.9934
vn 0.8956 0.4313 0.1092
vn 0.1148 0.0000 0.9934
vn 0.9464 0.0000 -0.3229
vn 0.3378 -0.0000 0.9412
vn 0.8527 -0.0000 -0.5224
vn 0.5417 0.0000 0.8405
vn 0.7160 -0.0000 -0.6981
vn 0.7160 0.0000 0.6981
vn 0.5417 0.0000 -0.8405
vn 0.8527 0.0000 0.5224
vn 0.3378 0.0000 -0.9412
vn 0.9464 -0.0000 0.3229
vn 0.1148 0.0000 -0.9934
vn 0.9940 -0.0000 0.1092
vn 0.9940 0.0000 -0.1092
vn 0.8527 -0.4106 -0.3229
vn 0.3044 -0.1466 0.9412
vn 0.7683 -0.3700 -0.5224
vn 0.4881 -0.2350 0.8405
vn 0.6451 -0.3107 -0.6981
vn 0.6451 -0.3107 0.6981
vn 0.4881 -0.2350 -0.8405
vn 0.7683 -0.3700 0.5224
vn 0.3044 -0.1466 -0.9412
vn 0.8527 -0.4106 0.3229
vn 0.1034 -0.0498 -0.9934
vn 0.8956 -0.4313 0.1092
vn 0.8956 -0.4313 -0.1092
vn 0.1034 -0.0498 0.9934
vn 0.5317 -0.6667 -0.5224
vn 0.3378 -0.4235 0.8405
vn 0.4464 -0.5598 -0.6981
vn 0.4464 -0.5598 0.6981
vn 0.3378 -0.4235 -0.8405
vn 0.5317 -0.6667 0.5224
vn 0.2106 -0.2641 -0.9412
vn 0.5901 -0.7400 0.3229
vn 0.0716 -0.0898 -0.9934
vn 0.6198 -0.7772 0.1092
vn 0.6198 -0.7772 -0.1092
vn 0.0716 -0.0898 0.9934
vn 0.5901 -0.7400 -0.3229
vn 0.2106 -0.2641 0.9412
vn 0.1205 -0.5282 0.8405
vn 0.1593 -0.6981 -0.6981
vn 0.1593 -0.6981 0.6981
vn 0.1205 -0.5282 -0.8405
vn 0.1897 -0.8313 0.5224
vn 0.0752 -0.3293 -0.9412
vn 0.2106 -0.9227 0.3229
vn 0.0255 -0.1119 -0.9934
vn 0.2212 -0.9691 0.1092
vn 0.2212 -0.9691 -0.1092
vn 0.0255 -0.1119 0.9934
vn 0.2106 -0.9227 -0.3229
vn 0.0752 -0.3293 0.9412
vn 0.1897 -0.8313 -0.5224
vn -0.1593 -0.6981 -0.6981
vn -0.1593 -0.6981 0.6981
vn -0.1205 -0.5282 -0.8405
vn -0.1897 -0.8313 0.5224
vn -0.0752 -0.3293 -0.9412
vn -0.2106 -0.9227 0.3229
vn -0.0255 -0.1119 -0.9934
vn -0.2212 -0.9691 0.1092
vn -0.2212 -0.9691 -0.1092
vn -0.0255 -0.1119 0.9934
vn -0.2106 -0.9227 -0.3229
vn -0.0752 -0.3293 0.9412
vn -0.1897 -0.8313 -0.5224
vn -0.1205 -0.5282 0.8405
vn -0.4464 -0.5598 0.6981
vn -0.3378 -0.4235 -0.8405
vn -0.5317 -0.6667 0.5224
vn -0.2106 -0.2641 -0.9412
vn -0.5901 -0.7400 0.3229
vn -0.0716 -0.0898 -0.9934
vn -0.6198 -0.7772 0.1092
vn -0.6198 -0.7772 -0.1092
vn -0.0716 -0.0898 0.9934
vn -0.5901 -0.7400 -0.3229
vn -0.2106 -0.2641 0.9412
vn -0.5317 -0.6667 -0.5224
vn -0.3378 -0.4235 0.8405
vn -0.4464 -0.5598 -0.6981
vn -0.4881 -0.2350 -0.8405
vn -0.7683 -0.3700 0.5224
vn -0.3044 -0.1466 -0.9412
vn -0.8527 -0.4106 0.3229
vn -0.1034 -0.0498 -0.9934
vn -0.8956 -0.4313 0.1092
vn -0.8956 -0.4313 -0.1092
vn -0.1034 -0.0498 0.9934
vn -0.8527 -0.4106 -0.3229
vn -0.3044 -0.1466 0.9412
vn -0.7683 -0.3700 -0.5224
vn -0.4881 -0.2350 0.8405
vn -0.6451 -0.3107 -0.6981
vn -0.6451 -0.3107 0.6981
vn -0.3378 0.0000 -0.9412
vn -0.9464 0.0000 0.3229
vn -0.1148 0.0000 -0.9934
vn -0.9940 0.0000 0.1092
vn -0.9940 0.0000 -0.1092
vn -0.1148 0.0000 0.9934
vn -0.9464 0.0000 -0.3229
vn -0.3378 0.0000 0.9412
vn -0.8527 0.0000 -0.5224
vn -0.5417 0.0000 0.8405
vn -0.7160 0.0000 -0.6981
vn -0.7160 0.0000 0.6981
vn -0.5417 0.0000 -0.8405
vn -0.8527 0.0000 0.5224
vn -0.8527 0.4106 0.3229
vn -0.1034 0.0498 -0.9934
vn -0.8956 0.4313 0.1092
vn -0.8956 0.4313 -0.1092
vn -0.1034 0.0498 0.9934
vn -0.8527 0.4106 -0.3229
vn -0.3044 0.1466 0.9412
vn -0.7683 0.3700 -0.5224
vn -0.4881 0.2351 0.8405
vn -0.6451 0.3107 -0.6981
vn -0.6451 0.3107 0.6981
vn -0.4881 0.2350 -0.8405
vn -0.7683 0.3700 0.5224
vn -0.3044 0.1466 -0.9412
vn -0.0716 0.0898 -0.9934
vn -0.6198 0.7772 0.1092
vn -0.6198 0.7772 -0.1092
vn -0.0716 0.0898 0.9934
vn -0.5901 0.7400 -0.3229
vn -0.2106 0.2641 0.9412
vn -0.5317 0.6667 -0.5224
vn -0.3378 0.4235 0.8405
vn -0.4464 0.5598 -0.6981
vn -0.4464 0.5598 0.6981
vn -0.3378 0.4235 -0.8405
vn -0.5317 0.6667 0.5224
vn -0.2106 0.2641 -0.9412
vn -0.5901 0.7400 0.3229
vn -0.2212 0.9691 0.1092
vn -0.2212 0.9691 -0.1092
vn -0.0255 0.1119 0.9934
vn -0.2106 0.9227 -0.3229
vn -0.0752 0.3293 0.9412
vn -0.1897 0.8313 -0.5224
vn -0.1205 0.5282 0.8405
vn -0.1593 0.6981 -0.6981
vn -0.1593 0.6981 0.6981
vn -0.1205 0.5282 -0.8405
vn -0.1897 0.8313 0.5224
vn -0.0752 0.3293 -0.9412
vn -0.2106 0.9227 0.3229
vn -0.0255 0.1119 -0.9934
usemtl yellow
s off
f 131//1 12//1 25//1
f 6//2 5//2 18//2 19//2
f 7//3 6//3 19//3 20//3
f 1//4 104//4 13//4
f 8//5 7//5 20//5 21//5
f 184//6 1//6 13//6 14//6
f 9//7 8//7 21//7 22//7
f 2//8 184//8 14//8 15//8
f 10//9 9//9 22//9 23//9
f 3//10 2//10 15//10 16//10
f 11//11 10//11 23//11 24//11
f 4//12 3//12 16//12 17//12
f 12//13 11//13 24//13 25//13
f 5//14 4//14 17//14 18//14
f 20//15 19//15 32//15 33//15
f 13//16 104//16 26//16
f 21//17 20//17 33//17 34//17
f 14//18 13//18 26//18 27//18
f 22//19 21//19 34//19 35//19
f 15//20 14//20 27//20 28//20
f 23//21 22//21 35//21 36//21
f 16//22 15//22 28//22 29//22
f 24//23 23//23 36//23 37//23
f 17//24 16//24 29//24 30//24
f 25//25 24//25 37//25 38//25
f 18//26 17//26 30//26 31//26
f 131//27 25//27 38//27
f 19//28 18//28 31//28 32//28
f 33//29 32//29 45//29 46//29
f 26//30 104//30 39//30
f 34//31 33//31 46//31 47//31
f 27//32 26//32 39//32 40//32
f 35//33 34//33 47//33 48//33
f 28//34 27//34 40//34 41//34
f 36//35 35//35 48//35 49//35
f 29//36 28//36 41//36 42//36
f 37//37 36//37 49//37 50//37
f 30//38 29//38 42//38 43//38
f 38//39 37//39 50//39 51//39
f 31//40 30//40 43//40 44//40
f 131//41 38//41 51//41
f 32//42 31//42 44//42 45//42
f 39//43 104//43 52//43
f 47//44 46//44 59//44 60//44
f 40//45 39//45 52//45 53//45
f 48//46 47//46 60//46 61//46
f 41//47 40//47 53//47 54//47
f 49//48 48//48 61//48 62//48
f 42//49 41//49 54//49 55//49
f 50//50 49//50 62//50 63//50
f 43//51 42//51 55//51 56//51
f 51//52 50//52 63//52 64//52
f 44//53 43//53 56//53 57//53
f 131//54 51//54 64//54
f 45//55 44//55 57//55 58//55
f 46//56 45//56 58//56 59//56
f 60//57 59//57 72//57 73//57
f 53//58 52//58 65//58 66//58
f 61//59 60//59 73//59 74//59
f 54//60 53//60 66//60 67//60
f 62//61 61//61 74//61 75//61
f 55//62 54//62 67//62 68//62
f 63//63 62//63 75//63 76//63
f 56//64 55//64 68//64 69//64
f 64//65 63//65 76//65 77//65
f 57//66 56//66 69//66 70//66
f 131//67 64//67 77//67
f 58//68 57//68 70//68 71//68
f 59//69 58//69 71//69 72//69
f 52//70 104//70 65//70
f 74//71 73//71 86//71 87//71
f 67//72 66//72 79//72 80//72
f 75//73 74//73 87//73 88//73
f 68//74 67//74 80//74 81//74
f 76//75 75//75 88//75 89//75
f 69//76 68//76 81//76 82//76
f 77//77 76//77 89//77 90//77
f 70//78 69//78 82//78 83//78
f 131//79 77//79 90//79
f 71//80 70//80 83//80 84//80
f 72//81 71//81 84//81 85//81
f 65//82 104//82 78//82
f 73//83 72//83 85//83 86//83
f 66//84 65//84 78//84 79//84
f 80//85 79//85 92//85 93//85
f 88//86 87//86 100//86 101//86
f 81//87 80//87 93//87 94//87
f 89//88 88//88 101//88 102//88
f 82//89 81//89 94//89 95//89
f 90//90 89//90 102//90 103//90
f 83//91 82//91 95//91 96//91
f 131//92 90//92 103//92
f 84//93 83//93 96//93 97//93
f 85//94 84//94 97//94 98//94
f 78//95 104//95 91//95
f 86//96 85//96 98//96 99//96
f 79//97 78//97 91//97 92//97
f 87//98 86//98 99//98 100//98
f 101//99 100//99 114//99 115//99
f 94//100 93//100 107//100 108//100
f 102//101 101//101 115//101 116//101
f 95//102 94//102 108//102 109//102
f 103//103 102//103 116//103 117//103
f 96//104 95//104 109//104 110//104
f 131//105 103//105 117//105
f 97//106 96//106 110//106 111//106
f 98//107 97//107 111//107 112//107
f 91//108 104//108 105//108
f 99//109 98//109 112//109 113//109
f 92//110 91//110 105//110 106//110
f 100//111 99//111 113//111 114//111
f 93//112 92//112 106//112 107//112
f 108//113 107//113 120//113 121//113
f 116//114 115//114 128//114 129//114
f 109//115 108//115 121//115 122//115
f 117//116 116//116 129//116 130//116
f 110//117 109//117 122//117 123//117
f 131//118 117//118 130//118
f 111//119 110//119 123//119 124//119
f 112//120 111//120 124//120 125//120
f 105//121 104//121 118//121
f 113//122 112//122 125//122 126//122
f 106//123 105//123 118//123 119//123
f 114//124 113//124 126//124 127//124
f 107//125 106//125 119//125 120//125
f 115//126 114//126 127//126 128//126
f 129//127 128//127 142//127 143//127
f 122//128 121//128 135//128 136//128
f 130//129 129//129 143//129 144//129
f 123//130 122//130 136//130 137//130
f 131//131 130//131 144//131
f 124//132 123//132 137//132 138//132
f 125//133 124//133 138//133 139//133
f 118//134 104//134 132//134
f 126//135 125//135 139//135 140//135
f 119//136 118//136 132//136 133//136
f 127//137 126//137 140//137 141//137
f 120//138 119//138 133//138 134//138
f 128//139 127//139 141//139 142//139
f 121//140 120//140 134//140 135//140
f 144//141 143//141 156//141 157//141
f 137//142 136//142 149//142 150//142
f 131//143 144//143 157//143
f 138//144 137//144 150//144 151//144
f 139//145 138//145 151//145 152//145
f 132//146 104//146 145//146
f 140//147 139//147 152//147 153//147
f 133//148 132//148 145//148 146//148
f 141//149 140//149 153//149 154//149
f 134//150 133//150 146//150 147//150
f 142//151 141//151 154//151 155//151
f 135//152 134//152 147//152 148//152
f 143//153 142//153 155//153 156//153
f 136//154 135//154 148//154 149//154
f 150//155 149//155 162//155 163//155
f 131//156 157//156 170//156
f 151//157 150//157 163//157 164//157
f 152//158 151//158 164//158 165//158
f 145//159 104//159 158//159
f 153//160 152//160 165//160 166//160
f 146//161 145//161 158//161 159//161
f 154//162 153//162 166//162 167//162
f 147//163 146//163 159//163 160//163
f 155//164 154//164 167//164 168//164
f 148//165 147//165 160//165 161//165
f 156//166 155//166 168//166 169//166
f 149//167 148//167 161//167 162//167
f 157//168 156//168 169//168 170//168
f 131//169 170//169 183//169
f 164//170 163//170 176//170 177//170
f 165//171 164//171 177//171 178//171
f 158//172 104//172 171//172
f 166//173 165//173 178//173 179//173
f 159//174 158//174 171//174 172//174
f 167//175 166//175 179//175 180//175
f 160//176 159//176 172//176 173//176
f 168//177 167//177 180//177 181//177
f 161//178 160//178 173//178 174//178
f 169//179 168//179 181//179 182//179
f 162//180 161//180 174//180 175//180
f 170//181 169//181 182//181 183//181
f 163//182 162//182 175//182 176//182
f 177//183 176//183 5//183 6//183
f 178//184 177//184 6//184 7//184
f 171//185 104//185 1//185
f 179//186 178//186 7//186 8//186
f 172//187 171//187 1//187 184//187
f 180//188 179//188 8//188 9//188
f 173//189 172//189 184//189 2//189
f 181//190 180//190 9//190 10//190
f 174//191 173//191 2//191 3//191
f 182//192 181//192 10//192 11//192
f 175//193 174//193 3//193 4//193
f 183//194 182//194 11//194 12//194
f 176//195 175//195 4//195 5//195
f 131//196 183//196 12//196
