# Blender v2.78 (sub 0) OBJ File: '1ball.blend'
# www.blender.org
mtllib 1ball.mtl
o ball_Sphere.007
v 0.000000 0.006359 0.027859
v 0.000000 0.017816 0.022341
v 0.000000 0.022341 0.017816
v 0.000000 0.025745 0.012398
v 0.000000 0.027859 0.006359
v 0.000000 0.028575 0.000000
v 0.000000 0.027859 -0.006359
v 0.000000 0.025745 -0.012398
v 0.000000 0.022341 -0.017816
v 0.000000 0.017816 -0.022341
v 0.000000 0.012398 -0.025745
v 0.000000 0.006359 -0.027859
v 0.002759 0.005729 0.027859
v 0.005379 0.011170 0.025745
v 0.007730 0.016052 0.022341
v 0.009693 0.020128 0.017816
v 0.011170 0.023196 0.012398
v 0.012087 0.025100 0.006359
v 0.012398 0.025745 0.000000
v 0.012087 0.025100 -0.006359
v 0.011170 0.023196 -0.012398
v 0.009693 0.020128 -0.017816
v 0.007730 0.016052 -0.022341
v 0.005379 0.011170 -0.025745
v 0.002759 0.005729 -0.027859
v 0.004971 0.003964 0.027859
v 0.009693 0.007730 0.025745
v 0.013929 0.011108 0.022341
v 0.017467 0.013929 0.017816
v 0.020128 0.016052 0.012398
v 0.021781 0.017370 0.006359
v 0.022341 0.017816 0.000000
v 0.021781 0.017370 -0.006359
v 0.020128 0.016052 -0.012398
v 0.017467 0.013929 -0.017816
v 0.013929 0.011108 -0.022341
v 0.009693 0.007730 -0.025745
v 0.004971 0.003964 -0.027859
v 0.006199 0.001415 0.027859
v 0.012087 0.002759 0.025745
v 0.017370 0.003964 0.022341
v 0.021781 0.004971 0.017816
v 0.025100 0.005729 0.012398
v 0.027160 0.006199 0.006359
v 0.027859 0.006359 0.000000
v 0.027160 0.006199 -0.006359
v 0.025100 0.005729 -0.012398
v 0.021781 0.004971 -0.017816
v 0.017370 0.003964 -0.022341
v 0.012087 0.002759 -0.025745
v 0.006199 0.001415 -0.027859
v 0.006199 -0.001415 0.027859
v 0.012087 -0.002759 0.025745
v 0.017370 -0.003964 0.022341
v 0.021781 -0.004971 0.017816
v 0.025100 -0.005729 0.012398
v 0.027160 -0.006199 0.006359
v 0.027859 -0.006359 0.000000
v 0.027160 -0.006199 -0.006359
v 0.025100 -0.005729 -0.012398
v 0.021781 -0.004971 -0.017816
v 0.017370 -0.003964 -0.022341
v 0.012087 -0.002759 -0.025745
v 0.006199 -0.001415 -0.027859
v 0.004971 -0.003965 0.027859
v 0.009693 -0.007730 0.025745
v 0.013929 -0.011108 0.022341
v 0.017467 -0.013929 0.017816
v 0.020128 -0.016052 0.012398
v 0.021781 -0.017370 0.006359
v 0.022341 -0.017816 0.000000
v 0.021781 -0.017370 -0.006359
v 0.020128 -0.016052 -0.012398
v 0.017467 -0.013929 -0.017816
v 0.013929 -0.011108 -0.022341
v 0.009693 -0.007730 -0.025745
v 0.004971 -0.003964 -0.027859
v 0.002759 -0.005729 0.027859
v 0.005379 -0.011170 0.025745
v 0.007730 -0.016052 0.022341
v 0.009693 -0.020128 0.017816
v 0.011170 -0.023196 0.012398
v 0.012087 -0.025100 0.006359
v 0.012398 -0.025745 0.000000
v 0.012087 -0.025100 -0.006359
v 0.011170 -0.023196 -0.012398
v 0.009693 -0.020128 -0.017816
v 0.007730 -0.016052 -0.022341
v 0.005379 -0.011170 -0.025745
v 0.002759 -0.005729 -0.027859
v -0.000000 -0.006359 0.027859
v -0.000000 -0.012398 0.025745
v -0.000000 -0.017816 0.022341
v -0.000000 -0.022341 0.017816
v -0.000000 -0.025745 0.012398
v -0.000000 -0.027859 0.006359
v 0.000000 -0.028575 0.000000
v -0.000000 -0.027859 -0.006359
v -0.000000 -0.025745 -0.012398
v -0.000000 -0.022341 -0.017816
v -0.000000 -0.017816 -0.022341
v -0.000000 -0.012398 -0.025745
v -0.000000 -0.006359 -0.027859
v -0.000000 -0.000000 0.028575
v -0.002759 -0.005729 0.027859
v -0.005379 -0.011170 0.025745
v -0.007730 -0.016052 0.022341
v -0.009693 -0.020128 0.017816
v -0.011170 -0.023196 0.012398
v -0.012087 -0.025100 0.006359
v -0.012398 -0.025745 0.000000
v -0.012087 -0.025100 -0.006359
v -0.011170 -0.023196 -0.012398
v -0.009693 -0.020128 -0.017816
v -0.007730 -0.016052 -0.022341
v -0.005379 -0.011170 -0.025745
v -0.002759 -0.005729 -0.027859
v -0.004971 -0.003964 0.027859
v -0.009693 -0.007730 0.025745
v -0.013929 -0.011108 0.022341
v -0.017467 -0.013929 0.017816
v -0.020128 -0.016052 0.012398
v -0.021781 -0.017370 0.006359
v -0.022341 -0.017816 0.000000
v -0.021781 -0.017370 -0.006359
v -0.020128 -0.016052 -0.012398
v -0.017467 -0.013929 -0.017816
v -0.013929 -0.011108 -0.022341
v -0.009693 -0.007730 -0.025745
v -0.004971 -0.003964 -0.027859
v 0.000000 -0.000000 -0.028575
v -0.006199 -0.001415 0.027859
v -0.012087 -0.002759 0.025745
v -0.017370 -0.003964 0.022341
v -0.021781 -0.004971 0.017816
v -0.025100 -0.005729 0.012398
v -0.027160 -0.006199 0.006359
v -0.027859 -0.006359 0.000000
v -0.027160 -0.006199 -0.006359
v -0.025100 -0.005729 -0.012398
v -0.021781 -0.004971 -0.017816
v -0.017370 -0.003964 -0.022341
v -0.012087 -0.002759 -0.025745
v -0.006199 -0.001415 -0.027859
v -0.006199 0.001415 0.027859
v -0.012087 0.002759 0.025745
v -0.017370 0.003964 0.022341
v -0.021781 0.004971 0.017816
v -0.025100 0.005729 0.012398
v -0.027160 0.006199 0.006359
v -0.027859 0.006359 0.000000
v -0.027160 0.006199 -0.006359
v -0.025100 0.005729 -0.012398
v -0.021781 0.004971 -0.017816
v -0.017370 0.003964 -0.022341
v -0.012087 0.002759 -0.025745
v -0.006199 0.001415 -0.027859
v -0.004971 0.003964 0.027859
v -0.009693 0.007730 0.025745
v -0.013929 0.011108 0.022341
v -0.017467 0.013929 0.017816
v -0.020128 0.016052 0.012398
v -0.021781 0.017370 0.006359
v -0.022341 0.017816 0.000000
v -0.021781 0.017370 -0.006359
v -0.020128 0.016052 -0.012398
v -0.017467 0.013929 -0.017816
v -0.013929 0.011108 -0.022341
v -0.009693 0.007730 -0.025745
v -0.004971 0.003964 -0.027859
v -0.002759 0.005729 0.027859
v -0.005379 0.011170 0.025745
v -0.007730 0.016052 0.022341
v -0.009693 0.020128 0.017816
v -0.011170 0.023196 0.012398
v -0.012087 0.025100 0.006359
v -0.012398 0.025745 0.000000
v -0.012087 0.025100 -0.006359
v -0.011170 0.023196 -0.012398
v -0.009693 0.020128 -0.017816
v -0.007730 0.016052 -0.022341
v -0.005379 0.011170 -0.025745
v -0.002759 0.005729 -0.027859
v 0.000000 0.012398 0.025745
vn 0.0255 0.1119 -0.9934
vn 0.2212 0.9691 0.1092
vn 0.2212 0.9691 -0.1092
vn 0.2106 0.9227 -0.3229
vn 0.1897 0.8313 -0.5224
vn 0.1205 0.5282 0.8405
vn 0.1593 0.6981 -0.6981
vn 0.1593 0.6981 0.6981
vn 0.1205 0.5282 -0.8405
vn 0.1897 0.8313 0.5224
vn 0.0752 0.3293 -0.9412
vn 0.2106 0.9227 0.3229
vn 0.6198 0.7772 -0.1092
vn 0.5901 0.7400 -0.3229
vn 0.5317 0.6667 -0.5224
vn 0.3378 0.4235 0.8405
vn 0.4464 0.5598 -0.6981
vn 0.4464 0.5598 0.6981
vn 0.3378 0.4235 -0.8405
vn 0.5317 0.6667 0.5224
vn 0.2106 0.2641 -0.9412
vn 0.5901 0.7400 0.3229
vn 0.0716 0.0898 -0.9934
vn 0.6198 0.7772 0.1092
vn 0.8956 0.4313 -0.1092
vn 0.8527 0.4106 -0.3229
vn 0.7683 0.3700 -0.5224
vn 0.4881 0.2350 0.8405
vn 0.6451 0.3107 -0.6981
vn 0.6451 0.3107 0.6981
vn 0.4881 0.2350 -0.8405
vn 0.7683 0.3700 0.5224
vn 0.3044 0.1466 -0.9412
vn 0.8527 0.4106 0.3229
vn 0.1034 0.0498 -0.9934
vn 0.8956 0.4313 0.1092
vn 0.9464 0.0000 -0.3229
vn 0.8527 -0.0000 -0.5224
vn 0.5417 0.0000 0.8405
vn 0.7160 0.0000 -0.6981
vn 0.7160 -0.0000 0.6981
vn 0.5417 0.0000 -0.8405
vn 0.8527 -0.0000 0.5224
vn 0.3378 0.0000 -0.9412
vn 0.9464 -0.0000 0.3229
vn 0.1148 0.0000 -0.9934
vn 0.9940 0.0000 0.1092
vn 0.9940 -0.0000 -0.1092
vn 0.8527 -0.4106 -0.3229
vn 0.7683 -0.3700 -0.5224
vn 0.4881 -0.2350 0.8405
vn 0.6451 -0.3107 -0.6981
vn 0.6451 -0.3107 0.6981
vn 0.4881 -0.2350 -0.8405
vn 0.7683 -0.3700 0.5224
vn 0.3044 -0.1466 -0.9412
vn 0.8527 -0.4106 0.3229
vn 0.1034 -0.0498 -0.9934
vn 0.8956 -0.4313 0.1092
vn 0.8956 -0.4313 -0.1092
vn 0.5317 -0.6667 -0.5224
vn 0.3378 -0.4235 0.8405
vn 0.4464 -0.5598 -0.6981
vn 0.4464 -0.5598 0.6981
vn 0.3378 -0.4235 -0.8405
vn 0.5317 -0.6667 0.5224
vn 0.2106 -0.2641 -0.9412
vn 0.5901 -0.7400 0.3229
vn 0.0716 -0.0898 -0.9934
vn 0.6198 -0.7772 0.1092
vn 0.6198 -0.7772 -0.1092
vn 0.5901 -0.7400 -0.3229
vn 0.1205 -0.5282 0.8405
vn 0.1593 -0.6981 -0.6981
vn 0.1593 -0.6981 0.6981
vn 0.1205 -0.5282 -0.8405
vn 0.1897 -0.8313 0.5224
vn 0.0752 -0.3293 -0.9412
vn 0.2106 -0.9227 0.3229
vn 0.0255 -0.1119 -0.9934
vn 0.2212 -0.9691 0.1092
vn 0.2212 -0.9691 -0.1092
vn 0.2106 -0.9227 -0.3229
vn 0.1897 -0.8313 -0.5224
vn -0.1593 -0.6981 -0.6981
vn -0.1593 -0.6981 0.6981
vn -0.1205 -0.5282 -0.8405
vn -0.1897 -0.8313 0.5224
vn -0.0752 -0.3293 -0.9412
vn -0.2106 -0.9227 0.3229
vn -0.0255 -0.1119 -0.9934
vn -0.2212 -0.9691 0.1092
vn -0.2212 -0.9691 -0.1092
vn -0.2106 -0.9227 -0.3229
vn -0.1897 -0.8313 -0.5224
vn -0.1205 -0.5282 0.8405
vn -0.4464 -0.5598 0.6981
vn -0.3378 -0.4235 -0.8405
vn -0.5317 -0.6667 0.5224
vn -0.2106 -0.2641 -0.9412
vn -0.5901 -0.7400 0.3229
vn -0.0716 -0.0898 -0.9934
vn -0.6198 -0.7772 0.1092
vn -0.6198 -0.7772 -0.1092
vn -0.5901 -0.7400 -0.3229
vn -0.5317 -0.6667 -0.5224
vn -0.3378 -0.4235 0.8405
vn -0.4464 -0.5598 -0.6981
vn -0.4881 -0.2350 -0.8405
vn -0.7683 -0.3700 0.5224
vn -0.3044 -0.1466 -0.9412
vn -0.8527 -0.4106 0.3229
vn -0.1034 -0.0498 -0.9934
vn -0.8956 -0.4313 0.1092
vn -0.8956 -0.4313 -0.1092
vn -0.8527 -0.4106 -0.3229
vn -0.7683 -0.3700 -0.5224
vn -0.4881 -0.2350 0.8405
vn -0.6451 -0.3107 -0.6981
vn -0.6451 -0.3107 0.6981
vn -0.3378 0.0000 -0.9412
vn -0.9464 0.0000 0.3229
vn -0.1148 0.0000 -0.9934
vn -0.9940 0.0000 0.1092
vn -0.9940 0.0000 -0.1092
vn -0.9464 0.0000 -0.3229
vn -0.8527 0.0000 -0.5224
vn -0.5417 0.0000 0.8405
vn -0.7160 0.0000 -0.6981
vn -0.7160 0.0000 0.6981
vn -0.5417 0.0000 -0.8405
vn -0.8527 0.0000 0.5224
vn -0.8527 0.4106 0.3229
vn -0.1034 0.0498 -0.9934
vn -0.8956 0.4313 0.1092
vn -0.8956 0.4313 -0.1092
vn -0.8527 0.4106 -0.3229
vn -0.7683 0.3700 -0.5224
vn -0.4881 0.2351 0.8405
vn -0.6451 0.3107 -0.6981
vn -0.6451 0.3107 0.6981
vn -0.4881 0.2350 -0.8405
vn -0.7683 0.3700 0.5224
vn -0.3044 0.1466 -0.9412
vn -0.0716 0.0898 -0.9934
vn -0.6198 0.7772 0.1092
vn -0.6198 0.7772 -0.1092
vn -0.5901 0.7400 -0.3229
vn -0.5317 0.6667 -0.5224
vn -0.3378 0.4235 0.8405
vn -0.4464 0.5598 -0.6981
vn -0.4464 0.5598 0.6981
vn -0.3378 0.4235 -0.8405
vn -0.5317 0.6667 0.5224
vn -0.2106 0.2641 -0.9412
vn -0.5901 0.7400 0.3229
vn -0.2212 0.9691 0.1092
vn -0.2212 0.9691 -0.1092
vn -0.2106 0.9227 -0.3229
vn -0.1897 0.8313 -0.5224
vn -0.1205 0.5282 0.8405
vn -0.1593 0.6981 -0.6981
vn -0.1593 0.6981 0.6981
vn -0.1205 0.5282 -0.8405
vn -0.1897 0.8313 0.5224
vn -0.0752 0.3293 -0.9412
vn -0.2106 0.9227 0.3229
vn -0.0255 0.1119 -0.9934
vn 0.0255 0.1119 0.9934
vn 0.0752 0.3293 0.9412
vn 0.0716 0.0898 0.9934
vn 0.2106 0.2641 0.9412
vn 0.1034 0.0498 0.9934
vn 0.3044 0.1466 0.9412
vn 0.1148 -0.0000 0.9934
vn 0.3378 -0.0000 0.9412
vn 0.3044 -0.1466 0.9412
vn 0.1034 -0.0498 0.9934
vn 0.0716 -0.0898 0.9934
vn 0.2106 -0.2641 0.9412
vn 0.0255 -0.1119 0.9934
vn 0.0752 -0.3293 0.9412
vn -0.0255 -0.1119 0.9934
vn -0.0752 -0.3293 0.9412
vn -0.0716 -0.0898 0.9934
vn -0.2106 -0.2641 0.9412
vn -0.1034 -0.0498 0.9934
vn -0.3044 -0.1466 0.9412
vn -0.1148 0.0000 0.9934
vn -0.3378 0.0000 0.9412
vn -0.1034 0.0498 0.9934
vn -0.3044 0.1466 0.9412
vn -0.0716 0.0898 0.9934
vn -0.2106 0.2641 0.9412
vn -0.0255 0.1119 0.9934
vn -0.0752 0.3293 0.9412
usemtl yellow
s off
f 131//1 12//1 25//1
f 6//2 5//2 18//2 19//2
f 7//3 6//3 19//3 20//3
f 8//4 7//4 20//4 21//4
f 9//5 8//5 21//5 22//5
f 2//6 184//6 14//6 15//6
f 10//7 9//7 22//7 23//7
f 3//8 2//8 15//8 16//8
f 11//9 10//9 23//9 24//9
f 4//10 3//10 16//10 17//10
f 12//11 11//11 24//11 25//11
f 5//12 4//12 17//12 18//12
f 20//13 19//13 32//13 33//13
f 21//14 20//14 33//14 34//14
f 22//15 21//15 34//15 35//15
f 15//16 14//16 27//16 28//16
f 23//17 22//17 35//17 36//17
f 16//18 15//18 28//18 29//18
f 24//19 23//19 36//19 37//19
f 17//20 16//20 29//20 30//20
f 25//21 24//21 37//21 38//21
f 18//22 17//22 30//22 31//22
f 131//23 25//23 38//23
f 19//24 18//24 31//24 32//24
f 33//25 32//25 45//25 46//25
f 34//26 33//26 46//26 47//26
f 35//27 34//27 47//27 48//27
f 28//28 27//28 40//28 41//28
f 36//29 35//29 48//29 49//29
f 29//30 28//30 41//30 42//30
f 37//31 36//31 49//31 50//31
f 30//32 29//32 42//32 43//32
f 38//33 37//33 50//33 51//33
f 31//34 30//34 43//34 44//34
f 131//35 38//35 51//35
f 32//36 31//36 44//36 45//36
f 47//37 46//37 59//37 60//37
f 48//38 47//38 60//38 61//38
f 41//39 40//39 53//39 54//39
f 49//40 48//40 61//40 62//40
f 42//41 41//41 54//41 55//41
f 50//42 49//42 62//42 63//42
f 43//43 42//43 55//43 56//43
f 51//44 50//44 63//44 64//44
f 44//45 43//45 56//45 57//45
f 131//46 51//46 64//46
f 45//47 44//47 57//47 58//47
f 46//48 45//48 58//48 59//48
f 60//49 59//49 72//49 73//49
f 61//50 60//50 73//50 74//50
f 54//51 53//51 66//51 67//51
f 62//52 61//52 74//52 75//52
f 55//53 54//53 67//53 68//53
f 63//54 62//54 75//54 76//54
f 56//55 55//55 68//55 69//55
f 64//56 63//56 76//56 77//56
f 57//57 56//57 69//57 70//57
f 131//58 64//58 77//58
f 58//59 57//59 70//59 71//59
f 59//60 58//60 71//60 72//60
f 74//61 73//61 86//61 87//61
f 67//62 66//62 79//62 80//62
f 75//63 74//63 87//63 88//63
f 68//64 67//64 80//64 81//64
f 76//65 75//65 88//65 89//65
f 69//66 68//66 81//66 82//66
f 77//67 76//67 89//67 90//67
f 70//68 69//68 82//68 83//68
f 131//69 77//69 90//69
f 71//70 70//70 83//70 84//70
f 72//71 71//71 84//71 85//71
f 73//72 72//72 85//72 86//72
f 80//73 79//73 92//73 93//73
f 88//74 87//74 100//74 101//74
f 81//75 80//75 93//75 94//75
f 89//76 88//76 101//76 102//76
f 82//77 81//77 94//77 95//77
f 90//78 89//78 102//78 103//78
f 83//79 82//79 95//79 96//79
f 131//80 90//80 103//80
f 84//81 83//81 96//81 97//81
f 85//82 84//82 97//82 98//82
f 86//83 85//83 98//83 99//83
f 87//84 86//84 99//84 100//84
f 101//85 100//85 114//85 115//85
f 94//86 93//86 107//86 108//86
f 102//87 101//87 115//87 116//87
f 95//88 94//88 108//88 109//88
f 103//89 102//89 116//89 117//89
f 96//90 95//90 109//90 110//90
f 131//91 103//91 117//91
f 97//92 96//92 110//92 111//92
f 98//93 97//93 111//93 112//93
f 99//94 98//94 112//94 113//94
f 100//95 99//95 113//95 114//95
f 93//96 92//96 106//96 107//96
f 108//97 107//97 120//97 121//97
f 116//98 115//98 128//98 129//98
f 109//99 108//99 121//99 122//99
f 117//100 116//100 129//100 130//100
f 110//101 109//101 122//101 123//101
f 131//102 117//102 130//102
f 111//103 110//103 123//103 124//103
f 112//104 111//104 124//104 125//104
f 113//105 112//105 125//105 126//105
f 114//106 113//106 126//106 127//106
f 107//107 106//107 119//107 120//107
f 115//108 114//108 127//108 128//108
f 129//109 128//109 142//109 143//109
f 122//110 121//110 135//110 136//110
f 130//111 129//111 143//111 144//111
f 123//112 122//112 136//112 137//112
f 131//113 130//113 144//113
f 124//114 123//114 137//114 138//114
f 125//115 124//115 138//115 139//115
f 126//116 125//116 139//116 140//116
f 127//117 126//117 140//117 141//117
f 120//118 119//118 133//118 134//118
f 128//119 127//119 141//119 142//119
f 121//120 120//120 134//120 135//120
f 144//121 143//121 156//121 157//121
f 137//122 136//122 149//122 150//122
f 131//123 144//123 157//123
f 138//124 137//124 150//124 151//124
f 139//125 138//125 151//125 152//125
f 140//126 139//126 152//126 153//126
f 141//127 140//127 153//127 154//127
f 134//128 133//128 146//128 147//128
f 142//129 141//129 154//129 155//129
f 135//130 134//130 147//130 148//130
f 143//131 142//131 155//131 156//131
f 136//132 135//132 148//132 149//132
f 150//133 149//133 162//133 163//133
f 131//134 157//134 170//134
f 151//135 150//135 163//135 164//135
f 152//136 151//136 164//136 165//136
f 153//137 152//137 165//137 166//137
f 154//138 153//138 166//138 167//138
f 147//139 146//139 159//139 160//139
f 155//140 154//140 167//140 168//140
f 148//141 147//141 160//141 161//141
f 156//142 155//142 168//142 169//142
f 149//143 148//143 161//143 162//143
f 157//144 156//144 169//144 170//144
f 131//145 170//145 183//145
f 164//146 163//146 176//146 177//146
f 165//147 164//147 177//147 178//147
f 166//148 165//148 178//148 179//148
f 167//149 166//149 179//149 180//149
f 160//150 159//150 172//150 173//150
f 168//151 167//151 180//151 181//151
f 161//152 160//152 173//152 174//152
f 169//153 168//153 181//153 182//153
f 162//154 161//154 174//154 175//154
f 170//155 169//155 182//155 183//155
f 163//156 162//156 175//156 176//156
f 177//157 176//157 5//157 6//157
f 178//158 177//158 6//158 7//158
f 179//159 178//159 7//159 8//159
f 180//160 179//160 8//160 9//160
f 173//161 172//161 184//161 2//161
f 181//162 180//162 9//162 10//162
f 174//163 173//163 2//163 3//163
f 182//164 181//164 10//164 11//164
f 175//165 174//165 3//165 4//165
f 183//166 182//166 11//166 12//166
f 176//167 175//167 4//167 5//167
f 131//168 183//168 12//168
usemtl white
f 1//169 104//169 13//169
f 184//170 1//170 13//170 14//170
f 13//171 104//171 26//171
f 14//172 13//172 26//172 27//172
f 26//173 104//173 39//173
f 27//174 26//174 39//174 40//174
f 39//175 104//175 52//175
f 40//176 39//176 52//176 53//176
f 53//177 52//177 65//177 66//177
f 52//178 104//178 65//178
f 65//179 104//179 78//179
f 66//180 65//180 78//180 79//180
f 78//181 104//181 91//181
f 79//182 78//182 91//182 92//182
f 91//183 104//183 105//183
f 92//184 91//184 105//184 106//184
f 105//185 104//185 118//185
f 106//186 105//186 118//186 119//186
f 118//187 104//187 132//187
f 119//188 118//188 132//188 133//188
f 132//189 104//189 145//189
f 133//190 132//190 145//190 146//190
f 145//191 104//191 158//191
f 146//192 145//192 158//192 159//192
f 158//193 104//193 171//193
f 159//194 158//194 171//194 172//194
f 171//195 104//195 1//195
f 172//196 171//196 1//196 184//196
