# Blender v2.78 (sub 0) OBJ File: 'cross.blend'
# www.blender.org
mtllib cross.mtl
o stick_Cylinder.001
v 0.009264 -0.003739 0.002740
v 0.009195 0.003907 0.002740
v 0.013805 0.005866 -0.736600
v 0.005840 0.002481 0.736600
v 0.013910 -0.005614 -0.736600
v 0.005884 -0.002375 0.736600
v 0.005866 -0.013805 -0.736600
v 0.002481 -0.005840 0.736600
v -0.005614 -0.013910 -0.736600
v -0.002375 -0.005884 0.736600
v -0.013805 -0.005866 -0.736600
v -0.005840 -0.002481 0.736600
v -0.013910 0.005614 -0.736600
v -0.005884 0.002375 0.736600
v -0.005866 0.013805 -0.736600
v -0.002481 0.005840 0.736600
v 0.005614 0.013910 -0.736600
v 0.002375 0.005884 0.736600
v 0.003907 -0.009195 0.002740
v -0.003739 -0.009264 0.002740
v -0.009195 -0.003907 0.002740
v -0.009264 0.003739 0.002740
v -0.003907 0.009195 0.002740
v 0.003739 0.009264 0.002740
v 0.005884 -0.002375 0.742035
v 0.005840 0.002481 0.742035
v 0.002481 -0.005840 0.742035
v -0.002375 -0.005884 0.742035
v -0.005840 -0.002481 0.742035
v -0.005884 0.002375 0.742035
v -0.002481 0.005840 0.742035
v 0.002375 0.005884 0.742035
v -0.000000 0.000000 0.742035
v 0.003691 0.009145 0.013668
v -0.003857 0.009077 0.013668
v 0.009077 0.003857 0.013668
v -0.009145 0.003691 0.013668
v -0.009077 -0.003857 0.013668
v -0.003691 -0.009145 0.013668
v 0.003857 -0.009077 0.013668
v 0.009145 -0.003691 0.013668
v 0.013910 -0.005614 -0.593799
v 0.005866 -0.013805 -0.593799
v -0.005614 -0.013910 -0.593799
v -0.013805 -0.005866 -0.593799
v -0.013910 0.005614 -0.593799
v -0.005866 0.013805 -0.593799
v 0.013805 0.005866 -0.593799
v 0.005614 0.013910 -0.593799
v 0.010274 0.004365 -0.740016
v 0.010351 -0.004178 -0.740016
v 0.004365 -0.010273 -0.740016
v -0.004178 -0.010351 -0.740016
v -0.010273 -0.004365 -0.740016
v -0.010351 0.004178 -0.740016
v -0.004365 0.010273 -0.740016
v 0.004178 0.010351 -0.740016
v 0.000000 0.000000 -0.742519
v 0.016349 0.013184 0.736600
v 0.012884 0.016587 0.736600
v 0.012884 0.016587 0.742034
v 0.016349 0.013184 0.742034
v 0.013184 -0.016349 0.736600
v 0.016587 -0.012884 0.736600
v 0.016587 -0.012884 0.742035
v 0.013184 -0.016349 0.742035
v -0.013184 0.016349 0.736600
v -0.016587 0.012884 0.736600
v -0.016587 0.012884 0.742034
v -0.013184 0.016349 0.742034
v -0.016349 -0.013184 0.736600
v -0.012884 -0.016587 0.736600
v -0.012884 -0.016587 0.742035
v -0.016349 -0.013184 0.742035
vn 0.9999 0.0091 0.0045
vn 0.7135 -0.7006 0.0078
vn 0.7135 -0.7006 0.0045
vn 0.0091 -0.9999 0.0078
vn 0.0091 -0.9999 0.0045
vn -0.7006 -0.7135 0.0078
vn -0.7006 -0.7135 0.0045
vn -0.9999 -0.0091 0.0078
vn -0.9999 -0.0091 0.0045
vn -0.7135 0.7006 0.0078
vn -0.7135 0.7006 0.0045
vn -0.0091 0.9999 0.0078
vn -0.0091 0.9999 0.0045
vn 0.7006 0.7135 0.0078
vn 0.7006 0.7135 0.0045
vn 0.9999 0.0091 0.0078
vn 1.0000 0.0091 0.0000
vn 0.7006 0.7135 0.0000
vn -0.0091 1.0000 0.0000
vn -0.7135 0.7006 -0.0000
vn -1.0000 -0.0091 -0.0000
vn -0.7006 -0.7135 -0.0000
vn 0.0091 -1.0000 -0.0000
vn 0.7135 -0.7006 0.0000
vn -0.0063 0.6939 -0.7201
vn -0.4951 0.4862 -0.7201
vn 0.6939 0.0063 -0.7201
vn -0.6939 -0.0063 -0.7201
vn -0.4862 -0.4951 -0.7201
vn 0.0063 -0.6939 -0.7201
vn 0.4862 0.4951 -0.7201
vn 0.4951 -0.4862 -0.7201
vn -0.1682 0.1652 -0.9718
vn -0.1652 -0.1682 -0.9718
vn 0.1682 -0.1652 -0.9718
vn -0.0021 0.2358 -0.9718
vn -0.2358 -0.0021 -0.9718
vn 0.0021 -0.2358 -0.9718
vn 0.1652 0.1682 -0.9718
vn 0.2358 0.0021 -0.9718
vn -0.0000 0.0000 1.0000
vn 0.7006 0.7135 0.0109
vn -0.0091 0.9999 0.0109
vn -0.7135 0.7006 0.0109
vn -0.9999 -0.0091 0.0109
vn -0.7006 -0.7135 0.0109
vn 0.0091 -0.9999 0.0109
vn 0.7135 -0.7006 0.0109
vn 0.9999 0.0091 0.0109
vn 0.0000 -0.0000 -1.0000
vn -0.7135 0.7007 -0.0000
usemtl wood
s off
f 36//1 4//1 6//1 41//1
f 42//2 1//2 19//2 43//2
f 41//3 6//3 8//3 40//3
f 43//4 19//4 20//4 44//4
f 40//5 8//5 10//5 39//5
f 44//6 20//6 21//6 45//6
f 39//7 10//7 12//7 38//7
f 45//8 21//8 22//8 46//8
f 38//9 12//9 14//9 37//9
f 46//10 22//10 23//10 47//10
f 37//11 14//11 16//11 35//11
f 47//12 23//12 24//12 49//12
f 35//13 16//13 18//13 34//13
f 49//14 24//14 2//14 48//14
f 34//15 18//15 4//15 36//15
f 48//16 2//16 1//16 42//16
usemtl wood_dark
f 3//17 48//17 42//17 5//17
f 17//18 49//18 48//18 3//18
f 15//19 47//19 49//19 17//19
f 13//20 46//20 47//20 15//20
f 11//21 45//21 46//21 13//21
f 9//22 44//22 45//22 11//22
f 7//23 43//23 44//23 9//23
f 5//24 42//24 43//24 7//24
f 15//25 17//25 57//25 56//25
f 13//26 15//26 56//26 55//26
f 3//27 5//27 51//27 50//27
f 11//28 13//28 55//28 54//28
f 9//29 11//29 54//29 53//29
f 7//30 9//30 53//30 52//30
f 17//31 3//31 50//31 57//31
f 5//32 7//32 52//32 51//32
f 56//33 58//33 55//33
f 54//34 58//34 53//34
f 52//35 58//35 51//35
f 57//36 58//36 56//36
f 55//37 58//37 54//37
f 53//38 58//38 52//38
f 50//39 58//39 57//39
f 51//40 58//40 50//40
usemtl metal
f 32//41 33//41 26//41
f 14//21 12//21 29//21 30//21
f 6//17 4//17 26//17 25//17
f 10//23 8//23 27//23 28//23
f 18//19 16//19 31//19 32//19
f 30//41 33//41 31//41
f 28//41 33//41 29//41
f 25//41 33//41 27//41
f 31//41 33//41 32//41
f 29//41 33//41 30//41
f 27//41 33//41 28//41
f 24//42 34//42 36//42 2//42
f 23//43 35//43 34//43 24//43
f 22//44 37//44 35//44 23//44
f 21//45 38//45 37//45 22//45
f 20//46 39//46 38//46 21//46
f 19//47 40//47 39//47 20//47
f 1//48 41//48 40//48 19//48
f 2//49 36//49 41//49 1//49
f 26//41 33//41 25//41
f 59//18 60//18 61//18 62//18
f 18//50 60//50 59//50 4//50
f 32//20 61//20 60//20 18//20
f 26//41 62//41 61//41 32//41
f 4//24 59//24 62//24 26//24
f 63//24 64//24 65//24 66//24
f 6//50 64//50 63//50 8//50
f 25//18 65//18 64//18 6//18
f 27//41 66//41 65//41 25//41
f 8//22 63//22 66//22 27//22
f 67//20 68//20 69//20 70//20
f 14//50 68//50 67//50 16//50
f 30//22 69//22 68//22 14//22
f 31//41 70//41 69//41 30//41
f 16//18 67//18 70//18 31//18
f 71//22 72//22 73//22 74//22
f 10//50 72//50 71//50 12//50
f 28//24 73//24 72//24 10//24
f 29//41 74//41 73//41 28//41
f 12//51 71//51 74//51 29//51
