# Blender v2.78 (sub 0) OBJ File: 'cue_stick.blend'
# www.blender.org
mtllib cue_stick.mtl
o stick_Cylinder.001
v 0.007064 0.007064 0.002740
v 0.000000 0.009990 0.002740
v 0.000000 0.015000 -0.736600
v -0.000000 0.006345 0.736600
v 0.010607 0.010607 -0.736600
v 0.004487 0.004487 0.736600
v 0.015000 0.000000 -0.736600
v 0.006345 -0.000000 0.736600
v 0.010607 -0.010607 -0.736600
v 0.004487 -0.004487 0.736600
v -0.000000 -0.015000 -0.736600
v -0.000000 -0.006345 0.736600
v -0.010607 -0.010607 -0.736600
v -0.004487 -0.004487 0.736600
v -0.015000 0.000000 -0.736600
v -0.006345 -0.000000 0.736600
v -0.010607 0.010607 -0.736600
v -0.004487 0.004487 0.736600
v 0.009990 -0.000000 0.002740
v 0.007064 -0.007064 0.002740
v -0.000000 -0.009990 0.002740
v -0.007064 -0.007064 0.002740
v -0.009990 0.000000 0.002740
v -0.007064 0.007064 0.002740
v 0.004487 0.004487 0.751676
v -0.000000 0.006345 0.751676
v 0.006345 -0.000000 0.751676
v 0.004487 -0.004487 0.751676
v -0.000000 -0.006345 0.751676
v -0.004487 -0.004487 0.751676
v -0.006345 -0.000000 0.751676
v -0.004487 0.004487 0.751676
v 0.001930 0.001930 0.753566
v -0.000000 0.002729 0.753566
v 0.002729 -0.000000 0.753566
v 0.001930 -0.001930 0.753566
v -0.000000 -0.002730 0.753566
v -0.001930 -0.001930 0.753566
v -0.002730 -0.000000 0.753566
v -0.001930 0.001930 0.753566
v -0.000000 -0.000000 0.754018
v -0.006974 0.006974 0.013668
v -0.009862 0.000000 0.013668
v -0.000000 0.009862 0.013668
v -0.006974 -0.006974 0.013668
v -0.000000 -0.009862 0.013668
v 0.006974 -0.006974 0.013668
v 0.009862 -0.000000 0.013668
v 0.006974 0.006974 0.013668
v 0.010607 0.010607 -0.593799
v 0.015000 0.000000 -0.593799
v 0.010607 -0.010607 -0.593799
v -0.000000 -0.015000 -0.593799
v -0.010607 -0.010607 -0.593799
v -0.015000 0.000000 -0.593799
v 0.000000 0.015000 -0.593799
v -0.010607 0.010607 -0.593799
v -0.000000 0.011163 -0.740016
v 0.007893 0.007893 -0.740016
v 0.011162 0.000000 -0.740016
v 0.007893 -0.007893 -0.740016
v -0.000000 -0.011162 -0.740016
v -0.007893 -0.007893 -0.740016
v -0.011162 0.000000 -0.740016
v -0.007893 0.007893 -0.740016
v -0.000000 0.000000 -0.742519
v -0.004487 0.004487 0.750166
v -0.000000 0.006345 0.750166
v -0.000000 -0.006345 0.750166
v -0.004487 -0.004487 0.750166
v 0.004487 0.004487 0.750166
v 0.006345 -0.000000 0.750166
v -0.006345 -0.000000 0.750166
v 0.004487 -0.004487 0.750166
vn 0.3827 0.9239 0.0045
vn 0.9239 0.3827 0.0078
vn 0.9239 0.3827 0.0045
vn 0.9239 -0.3827 0.0078
vn 0.9239 -0.3827 0.0045
vn 0.3827 -0.9239 0.0078
vn 0.3827 -0.9239 0.0045
vn -0.3827 -0.9239 0.0078
vn -0.3827 -0.9239 0.0045
vn -0.9239 -0.3827 0.0078
vn -0.9239 -0.3827 0.0045
vn -0.9239 0.3827 0.0078
vn -0.9239 0.3827 0.0045
vn -0.3827 0.9239 0.0078
vn -0.3827 0.9239 0.0045
vn 0.3827 0.9239 0.0078
vn 0.3827 -0.9239 0.0000
vn -0.9239 0.3827 -0.0000
vn 0.9239 -0.3827 0.0000
vn 0.3827 0.9239 0.0000
vn -0.9239 -0.3827 -0.0000
vn 0.9239 0.3827 0.0000
vn -0.3827 -0.9239 -0.0000
vn -0.3827 0.9239 -0.0000
vn -0.4550 0.1884 0.8703
vn -0.1885 -0.4550 0.8703
vn 0.4550 -0.1885 0.8703
vn 0.1885 0.4550 0.8703
vn -0.1885 0.4550 0.8703
vn -0.4550 -0.1885 0.8703
vn 0.1885 -0.4550 0.8703
vn 0.4550 0.1884 0.8703
vn -0.1629 -0.0675 0.9843
vn 0.0675 -0.1629 0.9843
vn 0.1630 0.0675 0.9843
vn -0.1630 0.0675 0.9843
vn -0.0675 -0.1629 0.9843
vn 0.1629 -0.0675 0.9843
vn 0.0675 0.1629 0.9843
vn -0.0675 0.1629 0.9843
vn -0.6411 0.2655 -0.7201
vn -0.6411 -0.2655 -0.7201
vn 0.2655 0.6411 -0.7201
vn -0.2655 -0.6411 -0.7201
vn 0.2655 -0.6411 -0.7201
vn 0.6411 -0.2655 -0.7201
vn -0.2655 0.6411 -0.7201
vn 0.6411 0.2655 -0.7201
vn -0.2178 -0.0902 -0.9718
vn 0.0902 -0.2178 -0.9718
vn 0.2178 0.0902 -0.9718
vn -0.2178 0.0902 -0.9718
vn -0.0902 -0.2178 -0.9718
vn 0.2178 -0.0902 -0.9718
vn -0.0902 0.2178 -0.9718
vn 0.0902 0.2178 -0.9718
vn -0.3827 0.9238 0.0109
vn -0.9238 0.3827 0.0109
vn -0.9238 -0.3827 0.0109
vn -0.3827 -0.9238 0.0109
vn 0.3827 -0.9238 0.0109
vn 0.9238 -0.3827 0.0109
vn 0.9238 0.3827 0.0109
vn 0.3827 0.9238 0.0109
usemtl wood
s off
f 44//1 4//1 6//1 49//1
f 50//2 1//2 19//2 51//2
f 49//3 6//3 8//3 48//3
f 51//4 19//4 20//4 52//4
f 48//5 8//5 10//5 47//5
f 52//6 20//6 21//6 53//6
f 47//7 10//7 12//7 46//7
f 53//8 21//8 22//8 54//8
f 46//9 12//9 14//9 45//9
f 54//10 22//10 23//10 55//10
f 45//11 14//11 16//11 43//11
f 55//12 23//12 24//12 57//12
f 43//13 16//13 18//13 42//13
f 57//14 24//14 2//14 56//14
f 42//15 18//15 4//15 44//15
f 56//16 2//16 1//16 50//16
usemtl white
f 12//17 10//17 74//17 69//17
f 18//18 16//18 73//18 67//18
f 10//19 8//19 72//19 74//19
f 6//20 4//20 68//20 71//20
f 16//21 14//21 70//21 73//21
f 8//22 6//22 71//22 72//22
f 14//23 12//23 69//23 70//23
f 4//24 18//24 67//24 68//24
usemtl blue
f 68//24 67//24 32//24 26//24
f 32//25 31//25 39//25 40//25
f 70//23 69//23 29//23 30//23
f 72//22 71//22 25//22 27//22
f 73//21 70//21 30//21 31//21
f 71//20 68//20 26//20 25//20
f 74//19 72//19 27//19 28//19
f 67//18 73//18 31//18 32//18
f 69//17 74//17 28//17 29//17
f 30//26 29//26 37//26 38//26
f 28//27 27//27 35//27 36//27
f 25//28 26//28 34//28 33//28
f 26//29 32//29 40//29 34//29
f 31//30 30//30 38//30 39//30
f 29//31 28//31 36//31 37//31
f 27//32 25//32 33//32 35//32
f 39//33 38//33 41//33
f 37//34 36//34 41//34
f 35//35 33//35 41//35
f 40//36 39//36 41//36
f 38//37 37//37 41//37
f 36//38 35//38 41//38
f 33//39 34//39 41//39
f 34//40 40//40 41//40
usemtl wood_dark
f 3//20 56//20 50//20 5//20
f 17//24 57//24 56//24 3//24
f 15//18 55//18 57//18 17//18
f 13//21 54//21 55//21 15//21
f 11//23 53//23 54//23 13//23
f 9//17 52//17 53//17 11//17
f 7//19 51//19 52//19 9//19
f 5//22 50//22 51//22 7//22
f 15//41 17//41 65//41 64//41
f 13//42 15//42 64//42 63//42
f 3//43 5//43 59//43 58//43
f 11//44 13//44 63//44 62//44
f 9//45 11//45 62//45 61//45
f 7//46 9//46 61//46 60//46
f 17//47 3//47 58//47 65//47
f 5//48 7//48 60//48 59//48
f 64//49 66//49 63//49
f 62//50 66//50 61//50
f 60//51 66//51 59//51
f 65//52 66//52 64//52
f 63//53 66//53 62//53
f 61//54 66//54 60//54
f 58//55 66//55 65//55
f 59//56 66//56 58//56
usemtl metal
f 24//57 42//57 44//57 2//57
f 23//58 43//58 42//58 24//58
f 22//59 45//59 43//59 23//59
f 21//60 46//60 45//60 22//60
f 20//61 47//61 46//61 21//61
f 19//62 48//62 47//62 20//62
f 1//63 49//63 48//63 19//63
f 2//64 44//64 49//64 1//64
